<?xml version="1.0" encoding="UTF-8" standalone="no"?>
<!-- Created with Inkscape (http://www.inkscape.org/) -->

<svg
   xmlns:dc="http://purl.org/dc/elements/1.1/"
   xmlns:cc="http://creativecommons.org/ns#"
   xmlns:rdf="http://www.w3.org/1999/02/22-rdf-syntax-ns#"
   xmlns:svg="http://www.w3.org/2000/svg"
   xmlns="http://www.w3.org/2000/svg"
   xmlns:sodipodi="http://sodipodi.sourceforge.net/DTD/sodipodi-0.dtd"
   xmlns:inkscape="http://www.inkscape.org/namespaces/inkscape"
   version="1.1"
   id="svg885"
   width="277.4837"
   height="291.88696"
   viewBox="0 0 277.4837 291.88696"
   sodipodi:docname="agave_logo.svg"
   inkscape:version="0.92.4 (f8dce91, 2019-08-02)">
  <metadata
     id="metadata891">
    <rdf:RDF>
      <cc:Work
         rdf:about="">
        <dc:format>image/svg+xml</dc:format>
        <dc:type
           rdf:resource="http://purl.org/dc/dcmitype/StillImage" />
        <dc:title></dc:title>
      </cc:Work>
    </rdf:RDF>
  </metadata>
  <defs
     id="defs889">
    <clipPath
       id="clipPath921"
       clipPathUnits="userSpaceOnUse">
      <path
         style="clip-rule:evenodd"
         inkscape:connector-curvature="0"
         id="path919"
         d="m 2932.4377,1425.8485 h 135.5012 v 135.5012 h -135.5012 z" />
    </clipPath>
    <clipPath
       id="clipPath909"
       clipPathUnits="userSpaceOnUse">
      <path
         style="clip-rule:evenodd"
         inkscape:connector-curvature="0"
         id="path907"
         d="m 2750.4124,1632.0013 h 135.5012 v 135.5013 h -135.5012 z" />
    </clipPath>
    <clipPath
       id="clipPath893"
       clipPathUnits="userSpaceOnUse">
      <path
         style="clip-rule:evenodd"
         inkscape:connector-curvature="0"
         id="path891"
         d="M 0,0 H 6000 V 3375 H 0 Z" />
    </clipPath>
    <clipPath
       id="clipPath881"
       clipPathUnits="userSpaceOnUse">
      <path
         style="clip-rule:evenodd"
         inkscape:connector-curvature="0"
         id="path879"
         d="m 2932.4377,1632.0013 h 135.5012 v 135.5013 h -135.5012 z" />
    </clipPath>
    <clipPath
       id="clipPath869"
       clipPathUnits="userSpaceOnUse">
      <path
         style="clip-rule:evenodd"
         inkscape:connector-curvature="0"
         id="path867"
         d="m 2750.4124,1449.976 h 499.771 v 499.7708 h -499.771 z" />
    </clipPath>
  </defs>
  <sodipodi:namedview
     pagecolor="#ffffff"
     bordercolor="#666666"
     borderopacity="1"
     objecttolerance="10"
     gridtolerance="10"
     guidetolerance="10"
     inkscape:pageopacity="0"
     inkscape:pageshadow="2"
     inkscape:window-width="1855"
     inkscape:window-height="1056"
     id="namedview887"
     showgrid="false"
     fit-margin-top="2"
     fit-margin-left="2"
     fit-margin-right="2"
     fit-margin-bottom="2"
     inkscape:zoom="1.732"
     inkscape:cx="253.50177"
     inkscape:cy="138.11898"
     inkscape:window-x="65"
     inkscape:window-y="24"
     inkscape:window-maximized="1"
     inkscape:current-layer="svg885"
     inkscape:snap-bbox="true" />
  <g
     id="g5954"
     transform="matrix(0.72820311,0,0,0.72820311,185.41078,7.4197543)">
    <g
       transform="matrix(0.81977844,0,0,0.81977844,-2506.5964,-1176.3225)"
       id="g863">
      <g
         clip-path="url(#clipPath869)"
         id="g865">
        <g
           transform="matrix(10.411894,0,0,10.411894,2750.4124,1449.976)"
           id="g871">
          <path
             inkscape:connector-curvature="0"
             id="path873"
             style="fill:#5ce1e6;fill-opacity:1;fill-rule:nonzero;stroke:none"
             d="M 24,4 C 12.95,4 4,12.95 4,24 4,35.049999 12.95,44 24,44 35.049999,44 44,35.049999 44,24 44,12.950001 35.049999,4 24,4 Z m 0,36 C 15.16,40 8,32.84 8,24 8,15.16 15.16,8 24,8 c 8.84,0 16,7.16 16,16 0,8.84 -7.16,16 -16,16 z" />
        </g>
      </g>
    </g>
    <g
       transform="matrix(0.81977844,0,0,0.81977844,-2506.5964,-1176.3225)"
       id="g875">
      <g
         clip-path="url(#clipPath881)"
         id="g877">
        <g
           transform="matrix(0.22765669,0,0,0.22765669,2904.3677,1632.0013)"
           id="g883">
          <path
             inkscape:connector-curvature="0"
             id="path885"
             style="fill:#5ce1e6;fill-opacity:1;fill-rule:nonzero;stroke:none"
             d="m 718.5,297.60001 c 0,9.74679 -0.47766,19.47009 -1.43304,29.16989 -0.95539,9.69986 -2.38379,19.3295 -4.28534,28.88894 -1.90149,9.55948 -4.26691,19.00278 -7.09626,28.32987 -2.8294,9.32709 -6.10901,18.49304 -9.83892,27.49786 -3.72992,9.00485 -7.89216,17.80521 -12.48676,26.40106 -4.59454,8.59592 -9.59937,16.94593 -15.0144,25.05002 -5.41498,8.10416 -11.21412,15.92343 -17.3974,23.4578 -6.18323,7.53436 -12.72089,14.74752 -19.61292,21.63952 -6.89197,6.89203 -14.10516,13.42963 -21.63953,19.61292 -7.53436,6.18323 -15.35363,11.98236 -23.45776,17.3974 -8.10419,5.41498 -16.45416,10.4198 -25.05005,15.0144 -8.59588,4.59461 -17.3963,8.75684 -26.40112,12.48676 -9.00482,3.72992 -18.17078,7.00958 -27.4978,9.83893 -9.32709,2.82928 -18.77039,5.1947 -28.32987,7.09619 -9.55948,1.90155 -19.18912,3.33001 -28.88894,4.2854 -9.6998,0.95538 -19.4231,1.43304 -29.1699,1.43304 -9.74676,0 -19.47006,-0.47766 -29.16992,-1.43298 -9.69986,-0.95545 -19.32953,-2.38391 -28.88901,-4.28546 -9.55947,-1.90149 -19.00274,-4.26691 -28.32983,-7.09619 -9.32706,-2.82935 -18.49304,-6.10901 -27.49789,-9.83893 -9.00483,-3.72992 -17.80518,-7.89215 -26.40107,-12.4867 -8.59585,-4.59466 -16.94589,-9.59948 -25.05003,-15.01446 -8.10413,-5.41504 -15.92337,-11.21417 -23.45772,-17.3974 -7.53434,-6.18329 -14.74751,-12.72089 -21.63952,-19.61295 -6.892,-6.892 -13.42965,-14.10516 -19.61293,-21.63955 -6.18328,-7.53434 -11.98243,-15.35358 -17.39745,-23.45774 -5.41501,-8.10412 -10.41982,-16.45413 -15.01442,-25.05005 -4.59459,-8.59585 -8.75685,-17.39624 -12.48679,-26.40109 -3.72992,-9.00482 -7.00955,-18.17078 -9.83888,-27.49786 -2.82933,-9.32706 -5.19476,-18.77036 -7.09627,-28.32984 -1.90148,-9.55944 -3.3299,-19.18908 -4.28524,-28.88891 -0.95536,-9.6998 -1.43303,-19.4231 -1.43303,-29.16989 0,-9.74677 0.47767,-19.47007 1.43303,-29.1699 0.95534,-9.69985 2.38376,-19.32952 4.28524,-28.88902 1.90151,-9.55946 4.26694,-19.00274 7.09629,-28.32983 2.82933,-9.32706 6.10894,-18.49301 9.83886,-27.49787 3.72994,-9.00483 7.89222,-17.80519 12.48681,-26.40107 4.59458,-8.59587 9.59939,-16.94588 15.0144,-25.05002 5.41502,-8.10414 11.21417,-15.92339 17.39745,-23.45773 6.18328,-7.53436 12.72093,-14.747548 19.61293,-21.639554 6.89201,-6.892006 14.10518,-13.429649 21.63952,-19.61293 7.53435,-6.183285 15.35359,-11.982433 23.45774,-17.39745 8.10415,-5.415012 16.45419,-10.419815 25.05004,-15.014408 8.59586,-4.594593 17.39621,-8.756853 26.40107,-12.48678 9.00485,-3.729925 18.1708,-7.009556 27.49786,-9.838894 9.32709,-2.829336 18.77036,-5.1947539 28.32983,-7.0962541 9.55948,-1.9014998 19.18915,-3.3299246 28.88901,-4.2852747 C 401.42993,0.47767508 411.15323,0 420.89999,0 c 9.7468,0 19.4701,0.47767508 29.1699,1.4330252 9.69982,0.9553501 19.32946,2.3837749 28.88894,4.2852747 9.55948,1.9015002 19.00278,4.2669181 28.3299,7.0962541 9.32705,2.829338 18.49301,6.108969 27.49783,9.838894 9.00488,3.729927 17.8053,7.892187 26.40118,12.48678 8.59583,4.594593 16.9458,9.599396 25.04993,15.014408 8.10413,5.415017 15.9234,11.214165 23.45776,17.39745 7.53437,6.183281 14.74756,12.720924 21.63953,19.61293 6.89203,6.892006 13.42969,14.105184 19.61292,21.639544 6.18328,7.53435 11.98242,15.35359 17.3974,23.45772 5.41503,8.10415 10.41986,16.45417 15.0144,25.05004 4.5946,8.59587 8.75684,17.39622 12.48676,26.40106 3.72991,9.00485 7.00958,18.17081 9.83898,27.49788 2.82929,9.32709 5.19471,18.77037 7.09626,28.32983 1.90149,9.5595 3.32995,19.18917 4.28534,28.88902 0.95532,9.69983 1.43298,19.42313 1.43298,29.1699 z" />
        </g>
      </g>
    </g>
    <g
       transform="matrix(0.81977844,0,0,0.81977844,-2506.5964,-1176.3225)"
       id="g887">
      <g
         clip-path="url(#clipPath893)"
         id="g889">
        <g
           transform="matrix(6.9245005,0,0,6.9248223,2774.0029,1560.9753)"
           id="g895">
          <path
             inkscape:connector-curvature="0"
             id="path897"
             style="fill:#5ce1e6;fill-opacity:1;fill-rule:nonzero;stroke:none"
             d="m 0,17 h 34.394619 v 6 H 0 Z" />
        </g>
        <g
           transform="matrix(0,-6.9245005,6.9248223,0,2861.4207,1706.1075)"
           id="g899">
          <path
             inkscape:connector-curvature="0"
             id="path901"
             style="fill:#5ce1e6;fill-opacity:1;fill-rule:nonzero;stroke:none"
             d="m 0,17 h 34.394619 v 6 H 0 Z" />
        </g>
      </g>
    </g>
    <g
       transform="matrix(0.81977844,0,0,0.81977844,-2506.5964,-1176.3225)"
       id="g903">
      <g
         clip-path="url(#clipPath909)"
         id="g905">
        <g
           transform="matrix(0.22765669,0,0,0.22765669,2722.3423,1632.0013)"
           id="g911">
          <path
             inkscape:connector-curvature="0"
             id="path913"
             style="fill:#5ce1e6;fill-opacity:1;fill-rule:nonzero;stroke:none"
             d="m 718.5,297.60001 c 0,9.74679 -0.47766,19.47009 -1.43304,29.16989 -0.95539,9.69986 -2.38379,19.3295 -4.28534,28.88894 -1.90149,9.55948 -4.26691,19.00278 -7.09626,28.32987 -2.8294,9.32709 -6.10901,18.49304 -9.83892,27.49786 -3.72992,9.00485 -7.89216,17.80521 -12.48676,26.40106 -4.59454,8.59592 -9.59937,16.94593 -15.0144,25.05002 -5.41498,8.10416 -11.21412,15.92343 -17.3974,23.4578 -6.18323,7.53436 -12.72089,14.74752 -19.61292,21.63952 -6.89197,6.89203 -14.10516,13.42963 -21.63953,19.61292 -7.53436,6.18323 -15.35363,11.98236 -23.45776,17.3974 -8.10419,5.41498 -16.45416,10.4198 -25.05005,15.0144 -8.59588,4.59461 -17.3963,8.75684 -26.40112,12.48676 -9.00482,3.72992 -18.17078,7.00958 -27.4978,9.83893 -9.32709,2.82928 -18.77039,5.1947 -28.32987,7.09619 -9.55948,1.90155 -19.18912,3.33001 -28.88894,4.2854 -9.6998,0.95538 -19.4231,1.43304 -29.1699,1.43304 -9.74676,0 -19.47006,-0.47766 -29.16992,-1.43298 -9.69986,-0.95545 -19.32953,-2.38391 -28.88901,-4.28546 -9.55947,-1.90149 -19.00274,-4.26691 -28.32983,-7.09619 -9.32706,-2.82935 -18.49304,-6.10901 -27.49789,-9.83893 -9.00483,-3.72992 -17.80518,-7.89215 -26.40107,-12.4867 -8.59585,-4.59466 -16.94589,-9.59948 -25.05003,-15.01446 -8.10413,-5.41504 -15.92337,-11.21417 -23.45772,-17.3974 -7.53434,-6.18329 -14.74751,-12.72089 -21.63952,-19.61295 -6.892,-6.892 -13.42965,-14.10516 -19.61293,-21.63955 -6.18328,-7.53434 -11.98243,-15.35358 -17.39745,-23.45774 -5.41501,-8.10412 -10.41982,-16.45413 -15.01442,-25.05005 -4.59459,-8.59585 -8.75685,-17.39624 -12.48679,-26.40109 -3.72992,-9.00482 -7.00955,-18.17078 -9.83888,-27.49786 -2.82933,-9.32706 -5.19476,-18.77036 -7.09627,-28.32984 -1.90148,-9.55944 -3.3299,-19.18908 -4.28524,-28.88891 -0.95536,-9.6998 -1.43303,-19.4231 -1.43303,-29.16989 0,-9.74677 0.47767,-19.47007 1.43303,-29.1699 0.95534,-9.69985 2.38376,-19.32952 4.28524,-28.88902 1.90151,-9.55946 4.26694,-19.00274 7.09629,-28.32983 2.82933,-9.32706 6.10894,-18.49301 9.83886,-27.49787 3.72994,-9.00483 7.89222,-17.80519 12.48681,-26.40107 4.59458,-8.59587 9.59939,-16.94588 15.0144,-25.05002 5.41502,-8.10414 11.21417,-15.92339 17.39745,-23.45773 6.18328,-7.53436 12.72093,-14.747548 19.61293,-21.639554 6.89201,-6.892006 14.10518,-13.429649 21.63952,-19.61293 7.53435,-6.183285 15.35359,-11.982433 23.45774,-17.39745 8.10415,-5.415012 16.45419,-10.419815 25.05004,-15.014408 8.59586,-4.594593 17.39621,-8.756853 26.40107,-12.48678 9.00485,-3.729925 18.1708,-7.009556 27.49786,-9.838894 9.32709,-2.829336 18.77036,-5.1947539 28.32983,-7.0962541 9.55948,-1.9014998 19.18915,-3.3299246 28.88901,-4.2852747 C 401.42993,0.47767508 411.15323,0 420.89999,0 c 9.7468,0 19.4701,0.47767508 29.1699,1.4330252 9.69982,0.9553501 19.32946,2.3837749 28.88894,4.2852747 9.55948,1.9015002 19.00278,4.2669181 28.3299,7.0962541 9.32705,2.829338 18.49301,6.108969 27.49783,9.838894 9.00488,3.729927 17.8053,7.892187 26.40118,12.48678 8.59583,4.594593 16.9458,9.599396 25.04993,15.014408 8.10413,5.415017 15.9234,11.214165 23.45776,17.39745 7.53437,6.183281 14.74756,12.720924 21.63953,19.61293 6.89203,6.892006 13.42969,14.105184 19.61292,21.639544 6.18328,7.53435 11.98242,15.35359 17.3974,23.45772 5.41503,8.10415 10.41986,16.45417 15.0144,25.05004 4.5946,8.59587 8.75684,17.39622 12.48676,26.40106 3.72991,9.00485 7.00958,18.17081 9.83898,27.49788 2.82929,9.32709 5.19471,18.77037 7.09626,28.32983 1.90149,9.5595 3.32995,19.18917 4.28534,28.88902 0.95532,9.69983 1.43298,19.42313 1.43298,29.1699 z" />
        </g>
      </g>
    </g>
    <g
       transform="matrix(0.81977844,0,0,0.81977844,-2506.5964,-1176.3225)"
       id="g915">
      <g
         clip-path="url(#clipPath921)"
         id="g917">
        <g
           transform="matrix(0.22765669,0,0,0.22765669,2904.3677,1425.8485)"
           id="g923">
          <path
             inkscape:connector-curvature="0"
             id="path925"
             style="fill:#5ce1e6;fill-opacity:1;fill-rule:nonzero;stroke:none"
             d="m 718.5,297.60001 c 0,9.74679 -0.47766,19.47009 -1.43304,29.16989 -0.95539,9.69986 -2.38379,19.3295 -4.28534,28.88894 -1.90149,9.55948 -4.26691,19.00278 -7.09626,28.32987 -2.8294,9.32709 -6.10901,18.49304 -9.83892,27.49786 -3.72992,9.00485 -7.89216,17.80521 -12.48676,26.40106 -4.59454,8.59592 -9.59937,16.94593 -15.0144,25.05002 -5.41498,8.10416 -11.21412,15.92343 -17.3974,23.4578 -6.18323,7.53436 -12.72089,14.74752 -19.61292,21.63952 -6.89197,6.89203 -14.10516,13.42963 -21.63953,19.61292 -7.53436,6.18323 -15.35363,11.98236 -23.45776,17.3974 -8.10419,5.41498 -16.45416,10.4198 -25.05005,15.0144 -8.59588,4.59461 -17.3963,8.75684 -26.40112,12.48676 -9.00482,3.72992 -18.17078,7.00958 -27.4978,9.83893 -9.32709,2.82928 -18.77039,5.1947 -28.32987,7.09619 -9.55948,1.90155 -19.18912,3.33001 -28.88894,4.2854 -9.6998,0.95538 -19.4231,1.43304 -29.1699,1.43304 -9.74676,0 -19.47006,-0.47766 -29.16992,-1.43298 -9.69986,-0.95545 -19.32953,-2.38391 -28.88901,-4.28546 -9.55947,-1.90149 -19.00274,-4.26691 -28.32983,-7.09619 -9.32706,-2.82935 -18.49304,-6.10901 -27.49789,-9.83893 -9.00483,-3.72992 -17.80518,-7.89215 -26.40107,-12.4867 -8.59585,-4.59466 -16.94589,-9.59948 -25.05003,-15.01446 -8.10413,-5.41504 -15.92337,-11.21417 -23.45772,-17.3974 -7.53434,-6.18329 -14.74751,-12.72089 -21.63952,-19.61295 -6.892,-6.892 -13.42965,-14.10516 -19.61293,-21.63955 -6.18328,-7.53434 -11.98243,-15.35358 -17.39745,-23.45774 -5.41501,-8.10412 -10.41982,-16.45413 -15.01442,-25.05005 -4.59459,-8.59585 -8.75685,-17.39624 -12.48679,-26.40109 -3.72992,-9.00482 -7.00955,-18.17078 -9.83888,-27.49786 -2.82933,-9.32706 -5.19476,-18.77036 -7.09627,-28.32984 -1.90148,-9.55944 -3.3299,-19.18908 -4.28524,-28.88891 -0.95536,-9.6998 -1.43303,-19.4231 -1.43303,-29.16989 0,-9.74677 0.47767,-19.47007 1.43303,-29.1699 0.95534,-9.69985 2.38376,-19.32952 4.28524,-28.88902 1.90151,-9.55946 4.26694,-19.00274 7.09629,-28.32983 2.82933,-9.32706 6.10894,-18.49301 9.83886,-27.49787 3.72994,-9.00483 7.89222,-17.80519 12.48681,-26.40107 4.59458,-8.59587 9.59939,-16.94588 15.0144,-25.05002 5.41502,-8.10414 11.21417,-15.92339 17.39745,-23.45773 6.18328,-7.53436 12.72093,-14.747548 19.61293,-21.639554 6.89201,-6.892006 14.10518,-13.429649 21.63952,-19.61293 7.53435,-6.183285 15.35359,-11.982433 23.45774,-17.39745 8.10415,-5.415012 16.45419,-10.419815 25.05004,-15.014408 8.59586,-4.594593 17.39621,-8.756853 26.40107,-12.48678 9.00485,-3.729925 18.1708,-7.009556 27.49786,-9.838894 9.32709,-2.829336 18.77036,-5.1947539 28.32983,-7.0962541 9.55948,-1.9014998 19.18915,-3.3299246 28.88901,-4.2852747 C 401.42993,0.47767508 411.15323,0 420.89999,0 c 9.7468,0 19.4701,0.47767508 29.1699,1.4330252 9.69982,0.9553501 19.32946,2.3837749 28.88894,4.2852747 9.55948,1.9015002 19.00278,4.2669181 28.3299,7.0962541 9.32705,2.829338 18.49301,6.108969 27.49783,9.838894 9.00488,3.729927 17.8053,7.892187 26.40118,12.48678 8.59583,4.594593 16.9458,9.599396 25.04993,15.014408 8.10413,5.415017 15.9234,11.214165 23.45776,17.39745 7.53437,6.183281 14.74756,12.720924 21.63953,19.61293 6.89203,6.892006 13.42969,14.105184 19.61292,21.639544 6.18328,7.53435 11.98242,15.35359 17.3974,23.45772 5.41503,8.10415 10.41986,16.45417 15.0144,25.05004 4.5946,8.59587 8.75684,17.39622 12.48676,26.40106 3.72991,9.00485 7.00958,18.17081 9.83898,27.49788 2.82929,9.32709 5.19471,18.77037 7.09626,28.32983 1.90149,9.5595 3.32995,19.18917 4.28534,28.88902 0.95532,9.69983 1.43298,19.42313 1.43298,29.1699 z" />
        </g>
      </g>
    </g>
  </g>
</svg>
